<?xml version="1.0" encoding="utf-8"?>
<!DOCTYPE svg PUBLIC "-//W3C//DTD SVG 1.0//EN" "http://www.w3.org/TR/2001/REC-SVG-20010904/DTD/svg10.dtd">
<svg version="1.0" xmlns="http://www.w3.org/2000/svg" width="95px" height="173px" viewBox="0 0 95 173" preserveAspectRatio="xMidYMid meet">
 <g fill="#000000">
  <path d="M17 163.5 l0 -9.5 -6.5 0 -6.5 0 0 -4 c0 -3.3 -0.3 -4 -2 -4 -2 0 -2 -0.7 -2 -59.5 0 -58.8 0 -59.5 2 -59.5 1.7 0 2 -0.7 2 -4 l0 -4 6.5 0 6.5 0 0 -9.5 0 -9.5 9 0 9 0 0 9.5 0 9.5 10.5 0 10.5 0 0 -9.5 0 -9.5 9 0 9 0 0 9.5 c0 9.5 0 9.5 2.5 9.5 2.2 0 2.5 0.4 2.5 3.5 0 3.4 0.1 3.5 4 3.5 l4 0 0 4 0 4 4 0 4 0 0 20 0 20 -4 0 -4 0 0 4 0 4 -4 0 -4 0 0 4.5 0 4.5 4 0 c3.9 0 4 0.1 4 3.5 0 3.4 0.1 3.5 4 3.5 l4 0 0 20.3 0 20.3 -4 -0.4 -4 -0.4 0 4.1 0 4.1 -4 0 -4 0 0 4 c0 3.6 -0.2 4 -2.5 4 -2.5 0 -2.5 0 -2.5 9.5 l0 9.5 -9 0 -9 0 0 -9.5 0 -9.5 -10.5 0 -10.5 0 0 9.5 0 9.5 -9 0 -9 0 0 -9.5z m38 -37.5 l0 -4 4 0 4 0 0 -8 0 -8 -4 0 -4 0 0 -4 0 -4 -8 0 -8 0 0 4 0 4 -4 0 -4 0 0 8 0 8 4 0 4 0 0 4 0 4 8 0 8 0 0 -4z m0 -56 l0 -4 4 0 4 0 0 -8 0 -8 -4 0 -4 0 0 -4 0 -4 -8 0 -8 0 0 4 0 4 -4 0 -4 0 0 8 0 8 4 0 4 0 0 4 0 4 8 0 8 0 0 -4z"/>
 </g>
</svg>